<svg width="14" height="16" viewBox="0 0 14 16" fill="none" xmlns="http://www.w3.org/2000/svg">
<path d="M13.9702 14.0293C13.9038 13.6805 13.8912 13.6179 11.1991 9.18812L11.1063 9.03561C10.9666 8.80508 10.8647 8.63839 10.8223 8.56746C10.7399 8.43032 10.654 8.30501 10.5704 8.18324C10.5429 8.14423 10.5063 8.08985 10.4685 8.0331C10.5509 7.88533 10.6402 7.73519 10.7341 7.57795C10.8223 7.42899 10.9139 7.27649 11.0021 7.12044L12.6293 4.26422C12.7117 4.11999 12.8045 3.96631 12.8858 3.83035C13.1079 3.4615 13.337 3.08083 13.5316 2.65879C13.6255 2.45545 13.9107 1.83597 13.6748 1.14792C13.5683 0.835821 13.3232 0.413773 12.761 0.178513C12.5514 0.09103 12.335 0 10.512 0C10.1284 0 9.62339 0.00472883 9.39895 0.028373C9.19398 0.0496527 8.88481 0.0993054 8.55616 0.27309C8.21721 0.452786 7.91834 0.716418 7.66642 1.05689C7.43854 1.36545 7.26907 1.69056 7.11791 1.9802C7.09043 2.03222 7.0641 2.08423 7.03776 2.1327C7.02287 2.10551 7.00684 2.0795 6.99195 2.05231C6.95531 1.98966 6.91981 1.92345 6.88431 1.85607L6.87286 1.83479C6.71598 1.54515 6.53735 1.21649 6.28428 0.9103C5.92815 0.478794 5.49645 0.193882 5.03498 0.0863012C4.70404 0.00945767 4.38341 0 4.17043 0C4.0479 0 3.93224 0.00354662 3.82002 0.00591104H3.80628C3.72727 0.00827545 3.65055 0.0106399 3.57497 0.0106399L1.14507 0.0177331C0.834749 0.0177331 0.545035 0.132407 0.329757 0.339294C0.227843 0.437417 0.147687 0.548544 0.0915772 0.672676C-0.117976 1.13728 0.0686755 1.59598 0.285099 2.12679C0.46488 2.56894 0.711077 2.96261 0.843909 3.16004C0.908035 3.2558 0.968724 3.34683 1.00766 3.41303L2.8799 6.62036C2.96578 6.76696 3.07686 6.94192 3.20969 7.15117C3.33908 7.35451 3.56352 7.70918 3.72956 7.99764C3.67918 8.07684 3.62536 8.15605 3.5807 8.22226C3.49367 8.3523 3.40321 8.48589 3.31733 8.62775L1.20805 12.1401L0.676722 13.0279C0.667561 13.0421 0.64924 13.0681 0.630919 13.0953C0.542746 13.223 0.40877 13.4169 0.310292 13.6699C0.0927227 14.2267 0.160283 14.8379 0.492362 15.306C0.780928 15.7127 1.20691 15.9362 1.75999 15.9716H1.77258C2.01306 15.9882 2.26841 15.9965 2.57759 15.9965C2.78027 15.9965 2.98181 15.9929 3.17648 15.9905C3.36198 15.987 3.53604 15.9846 3.71238 15.9846C3.80056 15.9846 3.90133 15.9882 4.0124 15.9917C4.1418 15.9965 4.27692 16 4.41891 16C4.64908 16 4.84146 15.9882 5.02353 15.9622C5.32354 15.9208 5.59837 15.799 5.84342 15.6028C6.09534 15.4006 6.29115 15.137 7.04692 13.8295C7.09158 13.9087 7.13738 13.9879 7.18204 14.0659L7.18662 14.0742C7.23471 14.1569 7.28395 14.248 7.33892 14.3473C7.4958 14.6357 7.67443 14.9632 7.91491 15.2741C8.01453 15.403 8.31913 15.7955 8.92374 15.9255C9.13902 15.9716 9.37147 15.9929 9.65317 15.9929C9.77226 15.9929 9.88906 15.9894 9.99097 15.9858H10.0059C10.0826 15.9823 10.1536 15.9799 10.2154 15.9799H12.3922L12.4381 15.9775C12.9064 15.9539 13.2923 15.7754 13.5843 15.4479C13.9232 15.0672 14.0675 14.5364 13.9702 14.0269V14.0293ZM12.572 14.4891C12.5125 14.5565 12.4438 14.5577 12.3636 14.5624H10.2143C9.89593 14.5624 9.51232 14.6038 9.202 14.5376C9.09894 14.5151 9.05199 14.4726 8.98786 14.3898C8.74739 14.0801 8.56418 13.6888 8.36607 13.3471C7.92865 12.5811 7.48664 11.8173 7.03776 11.0584C6.75034 11.5301 5.22735 14.3 4.99719 14.4856C4.94795 14.5258 4.89986 14.5494 4.83802 14.5577C4.48418 14.6074 4.06851 14.566 3.7078 14.566C3.09861 14.566 2.46995 14.5991 1.8619 14.5577C1.77258 14.5518 1.65807 14.5494 1.60082 14.469C1.54356 14.3887 1.55043 14.2917 1.58593 14.203C1.64319 14.0565 1.75999 13.9205 1.84129 13.7857L2.37834 12.8884L4.48647 9.37845C4.73267 8.96823 5.13116 8.49535 5.23308 8.02719L5.24109 7.98581C5.13346 7.52121 4.34562 6.38156 4.05477 5.88739L2.18482 2.68479C2.00733 2.37742 1.68899 1.98847 1.58135 1.65864C1.54929 1.56288 1.58708 1.52387 1.62716 1.43993L3.5807 1.43402C3.94713 1.43402 4.37769 1.39028 4.73496 1.47421C4.93535 1.52032 5.10941 1.67637 5.23995 1.8336C5.46324 2.10433 5.63501 2.46845 5.81021 2.77701C6.22016 3.49579 6.60949 4.22994 7.04234 4.93335C7.43282 4.28196 7.80841 3.62228 8.17141 2.95434C8.35806 2.61741 8.5344 2.22846 8.76113 1.92109C8.8745 1.7674 9.01764 1.6279 9.18597 1.53923C9.29933 1.48012 9.41613 1.45766 9.54095 1.44348C9.87302 1.40801 12.0396 1.41037 12.2457 1.49668C12.3087 1.52268 12.3568 1.5546 12.3808 1.62317C12.4232 1.74612 12.3419 1.94473 12.2915 2.05231C12.0567 2.56184 11.7247 3.05719 11.4464 3.54544L9.81806 6.40284C9.6108 6.76814 9.38521 7.12398 9.18711 7.49402C9.08405 7.68553 8.96038 7.92907 9.00619 8.15369C9.08863 8.56155 9.44476 8.96586 9.65431 9.3158C9.92914 9.77449 12.5858 14.1156 12.6224 14.3059C12.635 14.3733 12.619 14.4395 12.5732 14.4915L12.572 14.4891Z" fill="white"/>
</svg>
